HIERARCHY
ROOT Hips
{
	OFFSET 0.00000 0.00000 0.00000
	CHANNELS 6 Xposition Yposition Zposition Yrotation Zrotation Xrotation 
	JOINT Lumbar
	{
		OFFSET 0 0 0
		CHANNELS 3 Zrotation Xrotation Yrotation
		JOINT Neck
		{
			OFFSET 0.00 0.2701 0.00
			CHANNELS 3 Zrotation Xrotation Yrotation
			End Site
			{
				OFFSET 0.00 0.1379 0.00
			}
		}
		JOINT RightShoulder
		{
			OFFSET 0.0119 0.2289 0.1181
			CHANNELS 3 Zrotation Xrotation Yrotation
			JOINT RightElbow
			{
				OFFSET 0.00 -0.1475 0.00
				CHANNELS 2 Zrotation Yrotation
				JOINT RightWrist
				{
					OFFSET 0.00 -0.1605 0.00
					CHANNELS 2 Zrotation Xrotation
					End Site
					{
						OFFSET 0.0040 -0.1068 0.0006
					}
				}
			}
		}
		JOINT LeftShoulder
		{
			OFFSET 0.0119 0.2289 -0.1181
			CHANNELS 3 Zrotation Xrotation Yrotation
			JOINT LeftElbow
			{
				OFFSET 0.00 -0.1475 0.00
				CHANNELS 2 Zrotation Yrotation
				JOINT LeftWrist
				{
					OFFSET 0.00 -0.1605 0.00
					CHANNELS 2 Zrotation Xrotation
					End Site
					{
						OFFSET 0.0040 -0.1068 -0.0006
					}
				}
			}
		}
	}
	JOINT RightHip
	{
		OFFSET 0.0316 -0.0424 0.0458
		CHANNELS 3 Zrotation Xrotation Yrotation
		JOINT RightKnee
		{
			OFFSET 0.00 -0.2438 0.00
			CHANNELS 1 Zrotation
			JOINT RightAnkle
			{
				OFFSET 0.00 -0.2449 0.00
				CHANNELS 3 Zrotation Xrotation Yrotation
				End Site
				{
					OFFSET 0.1237 -0.0542 0.0051
				}
			}
		}
	}
	JOINT LeftHip
	{
		OFFSET 0.0316 -0.0424 -0.0458
		CHANNELS 3 Zrotation Xrotation Yrotation
		JOINT LeftKnee
		{
			OFFSET 0.00 -0.2438 0.00
			CHANNELS 1 Zrotation
			JOINT LeftAnkle
			{
				OFFSET 0.00 -0.2449 0.00
				CHANNELS 3 Zrotation Xrotation Yrotation
				End Site
				{
					OFFSET 0.1237 -0.0542 -0.0051
				}
			}
		}
	}
}
MOTION
Frames: 14
Frame Time: 0.02
-0 0.57926 -0 181.81297 0 -3.62296 2.73049 1.9512 -9.4667 -40.48158 -0.31741 7.19331 -18.59477 -74.36981 -85.16979 21.31369 79.28584 -19.78469 -2.28865 0.12447 70.96202 71.27645 24.15471 -70.71385 -33.16009 1.62863 -4.1522 3.87156 3.0003 -6.29704 -1.85894 -2.91807 -6.76665 -2.39691 5.33549 -0.74489 -7.35822 5.41933 1.19327 -0.67813
6e-05 0.57927 9e-05 181.79903 0 -3.62394 2.71699 1.95632 -9.46042 -40.48697 -0.31075 7.18408 -18.43689 -74.33818 -85.56533 21.3837 79.36284 -19.30577 -2.3129 0.09813 70.96747 71.29017 24.15375 -70.68901 -33.16669 1.64257 -4.14857 3.86597 3.06263 -6.28915 -1.87456 -2.9093 -6.81379 -2.39343 5.32614 -0.74763 -7.36028 5.41439 1.19618 -0.66403
0.00011 0.57928 0.00018 181.78452 0 -3.62494 2.70328 1.96154 -9.4511 -40.49217 -0.30229 7.17284 -18.27956 -74.30685 -85.95705 21.45346 79.43868 -18.83066 -2.33684 0.07157 70.97255 71.304 24.15323 -70.66449 -33.17313 1.65636 -4.14434 3.86023 3.12514 -6.28202 -1.89016 -2.90057 -6.86029 -2.38971 5.31663 -0.75034 -7.36284 5.40959 1.1994 -0.64929
0.00017 0.57928 0.00027 181.76914 0 -3.62607 2.68913 1.96701 -9.42886 -40.49687 -0.28591 7.15247 -18.12453 -74.27583 -86.33902 21.52223 79.51067 -18.36644 -2.35965 0.04457 70.97734 71.31838 24.15347 -70.64063 -33.1792 1.66958 -4.13842 3.85411 3.18701 -6.27745 -1.90549 -2.89184 -6.90382 -2.38525 5.30695 -0.75331 -7.36677 5.40517 1.20334 -0.63323
0.00022 0.57929 0.00036 181.76019 0 -3.62655 2.678 1.97088 -9.47421 -40.5045 -0.31069 7.1793 -17.95936 -74.24249 -86.7747 21.59537 79.60307 -17.8449 -2.38832 0.02076 70.98507 71.3298 24.14846 -70.61281 -33.1875 1.68568 -4.14235 3.85037 3.24991 -6.25882 -1.92185 -2.88304 -6.96203 -2.38501 5.29883 -0.75532 -7.36269 5.39856 1.20281 -0.6258
0.0003 0.5793 0.00046 181.73642 0 -3.62841 2.66002 1.97831 -9.37712 -40.50571 -0.2489 7.10706 -17.81441 -74.21456 -87.09493 21.65978 79.65223 -17.44488 -2.40462 -0.01038 70.9856 71.34752 24.15541 -70.59368 -33.19087 1.69577 -4.12484 3.84134 3.31215 -6.27029 -1.93628 -2.87443 -6.98988 -2.37562 5.28699 -0.7591 -7.37608 5.3967 1.21218 -0.59906
0.00045 0.57932 0.00061 181.68008 0 -3.63422 2.62579 1.99458 -8.86498 -40.49039 0.0668 6.74241 -17.73371 -74.19712 -87.10408 21.69695 79.57913 -17.38378 -2.38554 -0.0583 70.97349 71.38294 24.19024 -70.59759 -33.18133 1.6883 -4.05049 3.81886 3.36086 -6.36543 -1.94319 -2.86587 -6.925 -2.34175 5.26782 -0.76988 -7.43531 5.40754 1.24618 -0.52556
0.00063 0.57936 0.00078 181.60721 0 -3.64141 2.58405 2.01461 -8.21273 -40.4683 0.46754 6.28084 -17.6709 -74.18583 -86.99445 21.72647 79.46306 -17.44467 -2.35421 -0.11428 70.95251 71.42453 24.23845 -70.61118 -33.16632 1.67501 -3.95392 3.79074 3.41099 -6.49102 -1.94855 -2.85757 -6.83089 -2.29846 5.24429 -0.78189 -7.51262 5.42324 1.2906 -0.4315
0.00081 0.57939 0.00095 181.53635 0 -3.64789 2.54406 2.0336 -7.63771 -40.44857 0.82006 5.87532 -17.59545 -74.17477 -86.93513 21.76088 79.3681 -17.44752 -2.32916 -0.16891 70.93122 71.46334 24.28354 -70.62002 -33.15381 1.6649 -3.86593 3.7645 3.46829 -6.6024 -1.95605 -2.84948 -6.75603 -2.25894 5.22085 -0.79222 -7.5834 5.43707 1.33218 -0.3422
0.00095 0.57942 0.00106 181.4886 0 -3.65472 2.5114 2.04988 -7.00443 -40.43208 1.21282 5.41902 -17.54269 -74.15146 -86.89456 21.7871 79.26549 -17.46143 -2.30088 -0.21387 70.92936 71.50269 24.31487 -70.62732 -33.14273 1.65221 -3.78455 3.74141 3.49306 -6.71514 -1.95751 -2.84008 -6.6566 -2.2216 5.20555 -0.80804 -7.64732 5.44964 1.36619 -0.27138
0.00117 0.57946 0.0013 181.38895 0 -3.66114 2.46131 2.07258 -6.46059 -40.40695 1.54213 5.04568 -17.44236 -74.15448 -86.78264 21.83133 79.16986 -17.48121 -2.27671 -0.28079 70.88355 71.54156 24.37964 -70.64394 -33.12551 1.64389 -3.68387 3.71008 3.58535 -6.83253 -1.97114 -2.8334 -6.60063 -2.17744 5.17206 -0.81176 -7.72948 5.46579 1.41789 -0.15831
0.00159 0.57951 0.00186 181.14843 0 -3.66625 2.36824 2.11305 -6.18575 -40.36181 1.67424 4.92301 -17.2445 -74.23352 -86.53645 21.90428 79.09374 -17.48798 -2.26445 -0.40642 70.73059 71.58392 24.51936 -70.65096 -33.10824 1.64576 -3.5374 3.66027 3.86864 -6.95319 -2.01903 -2.83483 -6.67837 -2.1173 5.091 -0.78999 -7.8603 5.49229 1.52079 0.07617
0.00209 0.57957 0.00255 180.8565 0 -3.6709 2.25724 2.15966 -6.00792 -40.30767 1.73987 4.88747 -16.99053 -74.33756 -86.2155 22.00046 79.02843 -17.49652 -2.25729 -0.55329 70.5316 71.62381 24.6947 -70.67296 -33.08187 1.65282 -3.37186 3.60179 4.21885 -7.07788 -2.07915 -2.83885 -6.79958 -2.05057 4.99144 -0.75452 -8.00819 5.5219 1.64029 0.35067
0.00256 0.57962 0.00319 180.58922 0 -3.67566 2.15235 2.20287 -5.79377 -40.25637 1.83659 4.81356 -16.73784 -74.42749 -85.90762 22.10032 78.96445 -17.50362 -2.24931 -0.69115 70.34562 71.66146 24.86328 -70.70996 -33.0497 1.65972 -3.21376 3.54541 4.5353 -7.20207 -2.13349 -2.84128 -6.89667 -1.9864 4.89934 -0.71991 -8.14668 5.54905 1.74894 0.60039
